<svg width="16" height="16" viewBox="0 0 16 16" fill="none" xmlns="http://www.w3.org/2000/svg">
<path d="M3.33333 5.33333C3.33333 5.51014 3.40357 5.67971 3.5286 5.80474C3.65362 5.92976 3.82319 6 4 6C4.17681 6 4.34638 5.92976 4.4714 5.80474C4.59643 5.67971 4.66667 5.51014 4.66667 5.33333V4.66667H5.33333C5.51014 4.66667 5.67971 4.59643 5.80474 4.4714C5.92976 4.34638 6 4.17681 6 4C6 3.82319 5.92976 3.65362 5.80474 3.5286C5.67971 3.40357 5.51014 3.33333 5.33333 3.33333H4.66667V2.66667C4.66667 2.48986 4.59643 2.32029 4.4714 2.19526C4.34638 2.07024 4.17681 2 4 2C3.82319 2 3.65362 2.07024 3.5286 2.19526C3.40357 2.32029 3.33333 2.48986 3.33333 2.66667V3.33333H2.66667C2.48986 3.33333 2.32029 3.40357 2.19526 3.5286C2.07024 3.65362 2 3.82319 2 4C2 4.17681 2.07024 4.34638 2.19526 4.4714C2.32029 4.59643 2.48986 4.66667 2.66667 4.66667H3.33333V5.33333ZM12 3.33333H8C7.82319 3.33333 7.65362 3.40357 7.5286 3.5286C7.40357 3.65362 7.33333 3.82319 7.33333 4C7.33333 4.17681 7.40357 4.34638 7.5286 4.4714C7.65362 4.59643 7.82319 4.66667 8 4.66667H12C12.1768 4.66667 12.3464 4.7369 12.4714 4.86193C12.5964 4.98695 12.6667 5.15652 12.6667 5.33333V11.8133L11.62 10.8467C11.4971 10.7316 11.3351 10.6672 11.1667 10.6667H5.33333C5.15652 10.6667 4.98695 10.5964 4.86193 10.4714C4.7369 10.3464 4.66667 10.1768 4.66667 10V8C4.66667 7.82319 4.59643 7.65362 4.4714 7.5286C4.34638 7.40357 4.17681 7.33333 4 7.33333C3.82319 7.33333 3.65362 7.40357 3.5286 7.5286C3.40357 7.65362 3.33333 7.82319 3.33333 8V10C3.33333 10.5304 3.54405 11.0391 3.91912 11.4142C4.29419 11.7893 4.8029 12 5.33333 12H10.9067L12.9067 13.82C13.0228 13.9291 13.1742 13.9929 13.3333 14C13.4248 13.999 13.5152 13.9809 13.6 13.9467C13.7193 13.8946 13.8207 13.8088 13.8917 13.6998C13.9628 13.5908 14.0005 13.4634 14 13.3333V5.33333C14 4.8029 13.7893 4.29419 13.4142 3.91912C13.0391 3.54405 12.5304 3.33333 12 3.33333Z" fill="white"/>
</svg>
